<svg width="28" height="28" viewBox="0 0 28 28" fill="none" xmlns="http://www.w3.org/2000/svg">
<g filter="url(#filter0_d_996_170)">
<path d="M10.0197 8.9996C9.8222 8.9996 9.62913 9.05825 9.46491 9.16812C9.3007 9.278 9.1727 9.43417 9.09712 9.61689C9.02154 9.79961 9.00177 10.0007 9.0403 10.1946C9.07883 10.3886 9.17394 10.5668 9.31359 10.7066C9.45325 10.8465 9.63118 10.9417 9.82489 10.9803C10.0186 11.0189 10.2194 10.9991 10.4018 10.9234C10.5843 10.8477 10.7403 10.7195 10.85 10.5551C10.9597 10.3907 11.0183 10.1973 11.0183 9.99956C11.0183 9.73435 10.9131 9.48001 10.7258 9.29248C10.5385 9.10495 10.2845 8.9996 10.0197 8.9996ZM14.0141 8.9996C13.8166 8.9996 13.6235 9.05825 13.4593 9.16812C13.2951 9.278 13.1671 9.43417 13.0915 9.61689C13.0159 9.79961 12.9961 10.0007 13.0347 10.1946C13.0732 10.3886 13.1683 10.5668 13.308 10.7066C13.4476 10.8465 13.6256 10.9417 13.8193 10.9803C14.013 11.0189 14.2137 10.9991 14.3962 10.9234C14.5787 10.8477 14.7346 10.7195 14.8444 10.5551C14.9541 10.3907 15.0127 10.1973 15.0127 9.99956C15.0127 9.73435 14.9075 9.48001 14.7202 9.29248C14.5329 9.10495 14.2789 8.9996 14.0141 8.9996ZM18.0084 8.9996C17.8109 8.9996 17.6179 9.05825 17.4537 9.16812C17.2894 9.278 17.1614 9.43417 17.0859 9.61689C17.0103 9.79961 16.9905 10.0007 17.029 10.1946C17.0676 10.3886 17.1627 10.5668 17.3023 10.7066C17.442 10.8465 17.6199 10.9417 17.8136 10.9803C18.0073 11.0189 18.2081 10.9991 18.3906 10.9234C18.5731 10.8477 18.729 10.7195 18.8387 10.5551C18.9485 10.3907 19.007 10.1973 19.007 9.99956C19.007 9.73435 18.9018 9.48001 18.7146 9.29248C18.5273 9.10495 18.2733 8.9996 18.0084 8.9996ZM14.0141 0C12.7027 0 11.4042 0.258646 10.1926 0.761171C8.98108 1.2637 7.88024 2.00026 6.95296 2.9288C5.08023 4.80408 4.02815 7.34751 4.02815 9.99956C4.02301 11.3575 4.29704 12.6913 4.82208 13.9221C5.45124 15.3969 5.42081 17.1946 4.28778 18.3292C4.14922 18.4698 4.05535 18.6484 4.01803 18.8424C3.98071 19.0363 4.0016 19.237 4.07808 19.4191C4.16102 19.5991 4.29547 19.7502 4.46438 19.8535C4.63328 19.9568 4.82902 20.0075 5.02674 19.9991H14.0141C16.6625 19.9991 19.2025 18.9456 21.0752 17.0703C22.9479 15.195 24 12.6516 24 9.99956C24 7.34751 22.9479 4.80408 21.0752 2.9288C19.2025 1.05352 16.6625 0 14.0141 0ZM14.0141 17.9992H8.74761C8.26233 17.9992 8.01912 17.4126 8.36204 17.0692C8.45639 16.9766 8.53146 16.8662 8.58288 16.7443C8.63431 16.6225 8.66107 16.4916 8.66162 16.3593C8.65786 16.0955 8.55019 15.8439 8.36204 15.6593C7.05447 14.3514 6.2402 12.63 6.05798 10.7883C5.87575 8.94665 6.33684 7.09869 7.36267 5.55928C8.38851 4.01986 9.91564 2.88423 11.6839 2.34587C13.4521 1.80751 15.352 1.89972 17.06 2.6068C18.7679 3.31388 20.1782 4.59207 21.0506 6.22362C21.923 7.85516 22.2034 9.73911 21.8442 11.5545C21.4849 13.3699 20.5082 15.0044 19.0805 16.1795C17.6527 17.3547 15.8622 17.9977 14.0141 17.9992Z" fill="#1D4683"/>
</g>
<defs>
<filter id="filter0_d_996_170" x="0" y="0" width="28" height="28" filterUnits="userSpaceOnUse" color-interpolation-filters="sRGB">
<feFlood flood-opacity="0" result="BackgroundImageFix"/>
<feColorMatrix in="SourceAlpha" type="matrix" values="0 0 0 0 0 0 0 0 0 0 0 0 0 0 0 0 0 0 127 0" result="hardAlpha"/>
<feOffset dy="4"/>
<feGaussianBlur stdDeviation="2"/>
<feComposite in2="hardAlpha" operator="out"/>
<feColorMatrix type="matrix" values="0 0 0 0 0 0 0 0 0 0 0 0 0 0 0 0 0 0 0.25 0"/>
<feBlend mode="normal" in2="BackgroundImageFix" result="effect1_dropShadow_996_170"/>
<feBlend mode="normal" in="SourceGraphic" in2="effect1_dropShadow_996_170" result="shape"/>
</filter>
</defs>
</svg>
